<svg width="155" height="80" viewBox="0 0 155 80" fill="none" xmlns="http://www.w3.org/2000/svg">
<path d="M114.606 79.9999C109.352 80.0109 104.148 78.9832 99.2932 76.9759C94.4382 74.9685 90.0279 72.0212 86.3159 68.3034L84.7566 66.7441C83.7647 65.7517 83.2076 64.4059 83.2079 63.0029C83.2083 61.5998 83.7659 60.2543 84.7583 59.2624C85.7507 58.2705 87.0964 57.7134 88.4995 57.7137C89.9026 57.714 91.2481 58.2717 92.24 59.2641L93.7993 60.8234C97.9139 64.9383 103.156 67.7407 108.864 68.8762C114.571 70.0116 120.487 69.4291 125.863 67.2024C131.239 64.9756 135.834 61.2046 139.067 56.3662C142.3 51.5278 144.026 45.8393 144.026 40.0202C144.026 34.201 142.3 28.5126 139.067 23.6742C135.834 18.8357 131.239 15.0647 125.863 12.8379C120.487 10.6112 114.571 10.0287 108.864 11.1642C103.156 12.2996 97.9139 15.102 93.7993 19.217L58.3055 54.7107C57.3136 55.7026 55.9683 56.2599 54.5655 56.2599C53.1628 56.2599 51.8174 55.7026 50.8255 54.7107C49.8336 53.7188 49.2764 52.3735 49.2764 50.9707C49.2764 49.568 49.8336 48.2226 50.8255 47.2307L86.3227 11.737C90.9719 7.08073 96.698 3.64335 102.993 1.72946C109.289 -0.184436 115.959 -0.515719 122.413 0.76496C128.868 2.04564 134.906 4.89873 139.994 9.07136C145.082 13.244 149.061 18.6073 151.58 24.6859C154.1 30.7646 155.08 37.3708 154.436 43.9191C153.791 50.4674 151.541 56.7555 147.885 62.2262C144.228 67.6968 139.279 72.1811 133.475 75.2814C127.672 78.3818 121.193 80.0025 114.613 79.9999H114.606Z" fill="url(#paint0_linear)"/>
<path d="M39.981 79.9999C33.4048 79.9984 26.9304 78.3752 21.1313 75.274C15.3323 72.1727 10.3875 67.6892 6.73504 62.2205C3.08258 56.7518 0.835155 50.4668 0.191823 43.9221C-0.451508 37.3774 0.529111 30.7751 3.04683 24.6999C5.56455 18.6247 9.54166 13.2642 14.6259 9.09314C19.7101 4.92209 25.7445 2.06926 32.1946 0.787341C38.6446 -0.494579 45.3113 -0.16602 51.6041 1.74391C57.8969 3.65384 63.6215 7.0862 68.2709 11.737L69.5945 13.0605C70.0968 13.5497 70.4969 14.1339 70.7714 14.7791C71.046 15.4243 71.1896 16.1177 71.1938 16.8189C71.198 17.52 71.0629 18.2151 70.7961 18.8635C70.5294 19.512 70.1364 20.101 69.64 20.5962C69.1436 21.0915 68.5538 21.4832 67.9047 21.7484C67.2557 22.0137 66.5603 22.1473 65.8592 22.1415C65.158 22.1357 64.465 21.9906 63.8204 21.7146C63.1758 21.4386 62.5925 21.0372 62.1044 20.5338L60.7809 19.2136C56.6661 15.0991 51.4237 12.2972 45.7165 11.1621C40.0093 10.027 34.0938 10.6098 28.7178 12.8367C23.3418 15.0636 18.7469 18.8346 15.5142 23.673C12.2814 28.5113 10.5559 34.1995 10.5559 40.0185C10.5559 45.8374 12.2814 51.5257 15.5142 56.364C18.7469 61.2023 23.3418 64.9733 28.7178 67.2002C34.0938 69.4271 40.0093 70.0099 45.7165 68.8748C51.4237 67.7398 56.6661 64.9378 60.7809 60.8234L98.3863 23.2281C98.8774 22.7369 99.4605 22.3473 100.102 22.0815C100.744 21.8157 101.432 21.6789 102.126 21.6789C102.821 21.6789 103.509 21.8157 104.15 22.0815C104.792 22.3473 105.375 22.7369 105.866 23.2281C106.357 23.7192 106.747 24.3023 107.013 24.944C107.279 25.5857 107.415 26.2735 107.415 26.9681C107.415 27.6626 107.279 28.3504 107.013 28.9921C106.747 29.6338 106.357 30.2169 105.866 30.708L68.2642 68.3034C64.5523 72.0193 60.1429 74.9655 55.2893 76.9727C50.4356 78.98 45.2333 80.0087 39.981 79.9999V79.9999Z" fill="url(#paint1_linear)"/>
<defs>
<linearGradient id="paint0_linear" x1="157.489" y1="40.0202" x2="-13.9483" y2="40.0202" gradientUnits="userSpaceOnUse">
<stop stop-color="#08C8F6"/>
<stop offset="1" stop-color="#4D5DFB"/>
</linearGradient>
<linearGradient id="paint1_linear" x1="157.489" y1="40.0202" x2="-13.9484" y2="40.0202" gradientUnits="userSpaceOnUse">
<stop stop-color="#08C8F6"/>
<stop offset="1" stop-color="#4D5DFB"/>
</linearGradient>
</defs>
</svg>
